<?xml version="1.0" encoding="UTF-8"?>
<svg id="Layer_2" data-name="Layer 2" fill="none" xmlns="http://www.w3.org/2000/svg" viewBox="0 0 93.59 100.42">
  <defs>
    <style>
      .cls-1 {

        stroke-width: 0px;
      }
    </style>
  </defs>
  <g id="Layer_1-2" data-name="Layer 1">
    <path class="cls-1" d="M62.86,100.42c-1.38-.22-2.76-.42-4.13-.68-5.62-1.06-10.77-3.31-15.64-6.27-7.61-4.62-14.1-10.57-20.07-17.11-6.09-6.68-11.63-13.78-15.99-21.73-3.22-5.88-5.69-12.04-6.62-18.72-1.05-7.48-.16-14.66,3.56-21.34,1.96-3.52,4.51-6.55,7.68-9.06,1.51-1.2,2.91-2.53,4.43-3.72,3.2-2.52,6.65-2.39,9.51.53,1.64,1.67,3.15,3.5,4.46,5.44,2.44,3.62,4.96,7.22,6.4,11.41,1.48,4.33.9,8.19-2.62,11.34-1.77,1.59-3.56,3.2-5.51,4.55-4.17,2.88-4.77,6.43-3.19,10.99,1.45,4.2,3.98,7.78,6.69,11.22,3.55,4.49,7.34,8.78,11.8,12.41,2.47,2.01,5.06,3.82,8.24,4.55,2.78.64,5.14-.08,7.2-2.03,2.04-1.93,4.05-3.9,6.2-5.71,3.5-2.95,7.36-3.05,11.33-1.03,1.3.66,2.61,1.39,3.75,2.29,4.1,3.24,8.31,6.37,11.46,10.63,2.61,3.52,2.4,6.92-.83,9.87-3.13,2.85-6.1,5.92-9.85,8.03-3.84,2.15-7.91,3.53-12.3,3.96-.29.03-.57.12-.85.19h-5.1Z"/>
  </g>
</svg>