<?xml version="1.0" encoding="UTF-8"?>
<svg id="Layer_2" data-name="Layer 2" fill="none" xmlns="http://www.w3.org/2000/svg" viewBox="0 0 84.78 101.77">
  <defs>
    <style>
      .cls-1 {

        stroke-width: 0px;
      }
    </style>
  </defs>
  <g id="Layer_1-2" data-name="Layer 1">
    <g>
      <path class="cls-1" d="M43.4,0c.23.12.45.25.68.35,1.58.74,2.47,1.97,2.53,3.72.05,1.32.04,2.65,0,3.97-.01.56.15.8.75.91,12.35,2.24,21.55,11.13,24.1,23.39.43,2.09.53,4.27.58,6.41.12,4.47-.09,8.95.19,13.41.47,7.62,3.75,13.98,9.42,19.07,1.64,1.47,2.89,3.11,3.09,5.36.39,4.47-2.72,7.99-7.22,8.23-.26.01-.53.01-.79.01-22.89,0-45.77,0-68.66,0-2.64,0-4.88-.81-6.53-2.94-2.46-3.17-1.95-7.51,1.25-10.32,2.8-2.45,5.08-5.3,6.78-8.61,2.17-4.2,3.15-8.68,3.16-13.39,0-4.07-.05-8.15.03-12.22.26-13.94,10.74-26.08,24.48-28.37.78-.13.99-.41.95-1.14-.05-.79.05-1.59-.02-2.38-.25-2.63.74-4.49,3.24-5.47.66,0,1.33,0,1.99,0Z"/>
      <path class="cls-1" d="M57.88,89.1c-.78,5.52-6.4,12.57-15.31,12.67-8.59.09-14.69-6.55-15.63-12.67h30.94Z"/>
    </g>
  </g>
</svg>