<?xml version="1.0" encoding="UTF-8"?>
<svg id="Layer_2" data-name="Layer 2" fill="none" xmlns="http://www.w3.org/2000/svg" viewBox="0 0 96.3 109.56">
  <defs>
    <style>
      .cls-1 {

        stroke-width: 0px;
      }
    </style>
  </defs>
  <g id="Layer_1-2" data-name="Layer 1">
    <g>
      <path class="cls-1" d="M48.15,0c-15.93,0-28.89,12.96-28.89,28.89s12.96,28.89,28.89,28.89,28.89-12.96,28.89-28.89S64.08,0,48.15,0Z"/>
      <path class="cls-1" d="M84.09,76.65c-7.91-8.03-18.39-12.45-29.52-12.45h-12.84c-11.13,0-21.61,4.42-29.52,12.45-7.87,7.99-12.2,18.54-12.2,29.7,0,1.77,1.44,3.21,3.21,3.21h89.88c1.77,0,3.21-1.44,3.21-3.21,0-11.16-4.33-21.71-12.2-29.7Z"/>
    </g>
  </g>
</svg>