<?xml version="1.0" encoding="UTF-8"?>
<svg id="Layer_2" data-name="Layer 2" xmlns="http://www.w3.org/2000/svg" viewBox="0 0 78.89 74.97">
  <defs>
    <style>
      .cls-1 {
        fill: #aa7d47;
        stroke-width: 0px;
      }
    </style>
  </defs>
  <g id="Layer_1-2" data-name="Layer 1">
    <g>
      <path class="cls-1" d="M78.89,35.49v1.54c-.49.79-.88,1.68-1.49,2.36-.76.84-1.88.98-2.99.97-1.71,0-3.43,0-5.22,0v.98c0,10.3,0,20.59,0,30.89,0,1.87-.86,2.73-2.72,2.73-6.19,0-12.38,0-18.56,0-1.91,0-2.75-.86-2.75-2.79,0-6.06,0-12.12,0-18.18,0-.3,0-.6,0-.89h-11.4v.9c0,6.03,0,12.07,0,18.1,0,2.03-.82,2.86-2.83,2.86-6.11,0-12.22,0-18.33,0-2.07,0-2.87-.81-2.87-2.9,0-10.25,0-20.49,0-30.74v-.97c-.42,0-.75,0-1.07,0-1.69-.02-3.39.03-5.08-.08-1.47-.1-2.52-.94-3.15-2.27-.84-1.78-.38-3.51,1.35-5.08C13.29,22.41,24.83,11.9,36.38,1.39c.36-.33.75-.64,1.17-.87,1.68-.93,3.38-.6,5.05.92,11.31,10.31,22.62,20.62,33.94,30.92,1,.91,1.94,1.82,2.36,3.14Z"/>
      <path class="cls-1" d="M53.06,4.68c.43-.02.65-.04.87-.04,4.72,0,9.45,0,14.17,0,1.96,0,2.79.84,2.79,2.82,0,4.18,0,8.37,0,12.55,0,.23,0,.45,0,.88-5.98-5.44-11.84-10.76-17.84-16.22Z"/>
    </g>
  </g>
</svg>