<?xml version="1.0" encoding="UTF-8"?>
<svg id="Layer_2" data-name="Layer 2" xmlns="http://www.w3.org/2000/svg" viewBox="0 0 123.17 95.21">
  <defs>
    <style>
      .cls-1 {
        fill: #aa7d47;
        stroke-width: 0px;
      }
    </style>
  </defs>
  <g id="Layer_1-2" data-name="Layer 1">
    <g>
      <path class="cls-1" d="M28.11,67.26V28.08c2.59-.4,5.19-.68,7.74-1.2,11.67-2.39,21.52-8.03,29.55-16.84,2.24-2.46,4.44-4.95,6.76-7.32,2.73-2.77,5.99-3.42,9.35-1.92,3.48,1.55,5.35,4.21,5.34,8.11-.01,25.8,0,51.61,0,77.41,0,3.81-1.97,6.79-5.41,8.21-3.35,1.38-6.72.72-9.37-2.02-2.25-2.32-4.36-4.79-6.54-7.17-9.53-10.38-21.25-16.43-35.33-17.81-.65-.06-1.3-.16-2.09-.25Z"/>
      <path class="cls-1" d="M22.39,67.26c-4.28-.26-8.5.57-12.6-.75-5.44-1.75-9.31-6.62-9.6-12.36-.21-4.14-.26-8.31-.09-12.46.31-7.62,5.71-13.12,13.3-13.61,2.95-.19,5.93-.03,8.99-.03v39.21Z"/>
      <path class="cls-1" d="M8.64,72.09c5.39,1.34,10.96.4,16.6.81,0,1.47,0,2.9,0,4.33,0,3.23.04,6.47-.03,9.7-.06,3.28-1.48,5.85-4.49,7.28-3.03,1.44-6.03,1.21-8.84-.66-1.84-1.23-3.12-3.02-3.19-5.18-.16-5.4-.05-10.81-.05-16.28Z"/>
      <path class="cls-1" d="M112,50.44c-2.66,0-5.33.03-7.99,0-1.94-.03-3-.99-3.08-2.66-.08-1.8,1.04-2.93,3.04-2.96,2.79-.04,5.59-.01,8.38-.01,2.62,0,5.24-.04,7.86.02,2.1.04,3.26,1.48,2.89,3.44-.26,1.39-1.26,2.16-2.98,2.18-2.71.03-5.41,0-8.12,0Z"/>
      <path class="cls-1" d="M98.08,70.49c0-1.57.5-2.44,1.54-2.94,1.14-.54,2.23-.39,3.14.49,1.57,1.51,3.1,3.06,4.65,4.6,1.27,1.26,2.55,2.51,3.78,3.81,1.17,1.24,1.15,2.69.05,3.85-1.13,1.18-2.71,1.28-3.95.07-2.85-2.77-5.64-5.58-8.41-8.42-.45-.46-.64-1.18-.79-1.46Z"/>
      <path class="cls-1" d="M100.96,28.22c-1.26-.22-2.07-.74-2.55-1.73-.5-1.02-.56-2.1.26-2.93,2.92-3,5.87-5.97,8.89-8.87,1.07-1.02,2.65-.83,3.67.2,1.05,1.06,1.16,2.62.1,3.78-1.44,1.58-2.99,3.05-4.5,4.57-1.23,1.24-2.43,2.51-3.72,3.68-.61.55-1.42.88-2.15,1.31Z"/>
    </g>
  </g>
</svg>