<?xml version="1.0" encoding="UTF-8"?>
<svg id="Layer_2" data-name="Layer 2" xmlns="http://www.w3.org/2000/svg" viewBox="0 0 103.43 103.43">
  <defs>
    <style>
      .cls-1 {
        fill: #aa7d47;
        stroke-width: 0px;
      }
    </style>
  </defs>
  <g id="Layer_1-2" data-name="Layer 1">
    <g>
      <path class="cls-1" d="M82.25,90.83c-3.97,3.4-7.95,6.65-11.75,10.1-3.51,3.18-5.71,3.33-9.38-.01-3.79-3.46-7.78-6.71-11.74-10.1-1.12.95-2.21,1.87-3.29,2.8-3.23,2.77-6.48,5.53-9.69,8.31-1.61,1.4-3.39,1.95-5.38,1.05-2.04-.91-2.82-2.64-2.82-4.81,0-26.28,0-52.56.01-78.84,0-8.21-4.16-14.62-11.71-17.85-.2-.09-.39-.19-.64-.31C16.87.23,18.06,0,19.34,0c5.8,0,11.6,0,17.4,0,15.82,0,31.64-.02,47.46,0,6.61,0,11.94,2.66,15.82,8.05,2.32,3.23,3.41,6.89,3.41,10.84.02,26.46,0,52.93,0,79.39,0,2.08-.78,3.75-2.72,4.65-1.97.91-3.77.45-5.39-.95-4.11-3.55-8.25-7.07-12.37-10.6-.19-.17-.39-.32-.69-.56ZM65.76,65.82c4.59,0,9.18,0,13.77,0,2.96,0,5.04-1.92,5.06-4.64.03-2.75-2.01-4.76-4.95-4.76-9.21-.02-18.43-.02-27.64.02-.81,0-1.69.21-2.43.56-1.95.93-2.89,3.06-2.44,5.17.45,2.07,2.33,3.63,4.53,3.65,4.7.03,9.4,0,14.1.01ZM65.81,37.62c-4.63,0-9.25-.07-13.88.05-1.09.03-2.32.49-3.22,1.12-1.63,1.14-2.08,3.3-1.4,5.15.71,1.93,2.44,3.09,4.74,3.09,9.18.01,18.36.01,27.53,0,.65,0,1.33-.11,1.94-.32,2.18-.76,3.4-2.95,3-5.27-.37-2.16-2.3-3.79-4.62-3.81-4.7-.03-9.4,0-14.1,0ZM65.76,28.19h0c4.51.01,9.03.02,13.54,0,.65,0,1.34-.02,1.96-.2,2.27-.65,3.59-2.78,3.29-5.18-.28-2.18-2.16-3.88-4.47-3.95-1.87-.05-3.74-.02-5.62-.02-7.34,0-14.68,0-22.02,0-.69,0-1.41.02-2.07.2-2.27.64-3.59,2.78-3.29,5.18.27,2.18,2.16,3.92,4.47,3.94,4.73.05,9.47.01,14.2.01Z"/>
      <path class="cls-1" d="M18.84,56.4c-1.69,0-3.22,0-4.76,0-2.94,0-5.87,0-8.81,0-3.38,0-5.26-1.87-5.26-5.23C0,40.01,0,28.85,0,17.69c0-4.7,3.78-8.79,8.42-9.18,5.04-.42,9.46,2.84,10.24,7.65.19,1.15.16,2.34.16,3.51.01,11.75,0,23.49,0,35.24v1.49Z"/>
    </g>
  </g>
</svg>