<?xml version="1.0" encoding="UTF-8"?>
<svg id="Layer_2" data-name="Layer 2" xmlns="http://www.w3.org/2000/svg" viewBox="0 0 110.89 102.36">
  <defs>
    <style>
      .cls-1 {
        fill: #aa7d47;
        stroke-width: 0px;
      }
    </style>
  </defs>
  <g id="Layer_1-2" data-name="Layer 1">
    <path class="cls-1" d="M0,34.12v-6.4C.01,17.13,8.6,8.54,19.19,8.53h6.4v6.4c0,4.71,3.82,8.53,8.53,8.53s8.53-3.82,8.53-8.53v-6.4h25.59v6.4c0,4.71,3.82,8.53,8.53,8.53s8.53-3.82,8.53-8.53v-6.4h6.4c10.59.01,19.18,8.6,19.19,19.19v6.4H0ZM29.85,14.93c0,2.36,1.91,4.26,4.26,4.26s4.26-1.91,4.26-4.26V4.26c0-2.36-1.91-4.26-4.26-4.26s-4.26,1.91-4.26,4.26v10.66ZM72.5,4.26v10.66c0,2.36,1.91,4.26,4.26,4.26s4.26-1.91,4.26-4.26V4.26c0-2.36-1.91-4.26-4.26-4.26s-4.26,1.91-4.26,4.26ZM110.89,38.38v44.78c-.01,10.59-8.6,19.18-19.19,19.19H19.19c-10.59-.01-19.18-8.6-19.19-19.19v-44.78h110.89ZM71.03,62.5h-8.8l-2.73-8.37c-.74-2.24-3.15-3.46-5.38-2.72-1.29.42-2.3,1.43-2.72,2.72l-2.72,8.37h-8.81c-2.36,0-4.27,1.91-4.27,4.26,0,1.37.65,2.65,1.76,3.45l7.12,5.18-2.72,8.37c-.73,2.24.5,4.65,2.74,5.37,1.3.42,2.72.2,3.83-.61l7.12-5.18,7.12,5.18c1.91,1.38,4.57.96,5.96-.94.8-1.1,1.03-2.53.61-3.83l-2.72-8.37,7.12-5.18c1.91-1.38,2.33-4.05.94-5.96-.8-1.1-2.09-1.76-3.45-1.76h0Z"/>
  </g>
</svg>