<?xml version="1.0" encoding="UTF-8"?>
<svg id="Layer_2" data-name="Layer 2" xmlns="http://www.w3.org/2000/svg" viewBox="0 0 134.86 66.78">
  <defs>
    <style>
      .cls-1 {
        fill: #aa7d47;
        stroke-width: 0px;
      }
    </style>
  </defs>
  <g id="Layer_1-2" data-name="Layer 1">
    <g>
      <path class="cls-1" d="M43.16,21.43h48.54v23.92h-48.54v-23.92Z"/>
      <path class="cls-1" d="M127.81,14.92h-3.37v35.28h3.37c3.89,0,7.05-3.16,7.05-7.05v-21.18c0-3.89-3.16-7.05-7.05-7.05Z"/>
      <path class="cls-1" d="M111.23,0h-13.37v66.78h13.37c3.89,0,7.05-3.16,7.05-7.05V7.05c0-3.89-3.16-7.05-7.05-7.05Z"/>
      <path class="cls-1" d="M16.58,7.05v52.68c0,3.89,3.16,7.05,7.05,7.05h13.37V0h-13.37c-3.89,0-7.05,3.16-7.05,7.05Z"/>
      <path class="cls-1" d="M0,21.97v21.18c0,3.89,3.16,7.05,7.05,7.05h3.37V14.92h-3.37c-3.89,0-7.05,3.16-7.05,7.05Z"/>
    </g>
  </g>
</svg>