<?xml version="1.0" encoding="UTF-8"?>
<svg id="Layer_2" data-name="Layer 2" xmlns="http://www.w3.org/2000/svg" viewBox="0 0 103.06 103.06">
  <defs>
    <style>
      .cls-1 {
        fill: #aa7d47;
        stroke-width: 0px;
      }
    </style>
  </defs>
  <g id="Layer_1-2" data-name="Layer 1">
    <g id="Layer_2-2" data-name="Layer 2">
      <path class="cls-1" d="M72.14,0H10.31C4.62,0,0,4.62,0,10.31v77.29c0,8.53,6.93,15.45,15.46,15.46h61.84c2.84,0,5.15-2.3,5.15-5.15h0V10.31c0-5.69-4.62-10.3-10.31-10.31ZM23.19,20.61h15.46c2.85,0,5.15,2.31,5.15,5.15s-2.31,5.15-5.15,5.15h-15.46c-2.85,0-5.15-2.31-5.15-5.15s2.31-5.15,5.15-5.15ZM59.26,85.02H23.19c-2.85,0-5.15-2.31-5.15-5.15s2.31-5.15,5.15-5.15h36.07c2.85,0,5.15,2.31,5.15,5.15s-2.31,5.15-5.15,5.15ZM59.26,66.99H23.19c-2.85,0-5.15-2.31-5.15-5.15s2.31-5.15,5.15-5.15h36.07c2.85,0,5.15,2.31,5.15,5.15s-2.31,5.15-5.15,5.15ZM59.26,48.95H23.19c-2.85,0-5.15-2.31-5.15-5.15s2.31-5.15,5.15-5.15h36.07c2.85,0,5.15,2.31,5.15,5.15s-2.31,5.15-5.15,5.15Z"/>
      <path class="cls-1" d="M87.6,103.06h-10.31c-2.84,0-5.15-2.3-5.15-5.15h0v-61.84c0-2.84,2.3-5.15,5.15-5.15h20.62c2.84,0,5.15,2.3,5.15,5.15h0v51.54c0,8.53-6.93,15.45-15.46,15.46ZM82.45,92.75h5.15c2.85,0,5.15-2.31,5.15-5.15v-46.38h-10.31v51.53Z"/>
    </g>
  </g>
</svg>