<?xml version="1.0" encoding="UTF-8"?>
<svg id="Layer_2"  data-name="Layer 2" xmlns="http://www.w3.org/2000/svg" viewBox="0 0 139.65 96.26">
  <defs>
    <style>
      .cls-1 {
        fill: #aa7d47;
        stroke-width: 0px;
  
      }
    </style>
  </defs>
  <g id="Layer_1-2" data-name="Layer 1">
    <g>
      <path class="cls-1" d="M38.48,14.67c1.84,2.06,4.16,2.33,6.62,2.27,2.32-.06,4.63-.01,6.81-.01-1.38,1.51-2.67,3.05-4.09,4.45-4,3.91-3.05,9.44,2.11,11.58,5.5,2.29,11.01,2.17,16.43-.33.89-.41,1.76-.86,2.62-1.33,2.68-1.46,5.18-1.19,7.55.72,7.36,5.91,14.74,11.79,22.1,17.7,2.86,2.3,5.99,4,9.66,4.46,1.45.18,1.61,1,1.51,2.1-.18,1.95-1.04,3.48-2.88,4.32-1.96.91-3.82.68-5.54-.59-4.36-3.22-8.72-6.44-13.07-9.66-1.5-1.11-3-2.24-4.51-3.33-1.35-.98-2.65-.86-3.44.26-.75,1.08-.46,2.25.86,3.24,5.32,3.97,10.65,7.91,15.97,11.87,2,1.49,2.78,3.51,2.28,5.92-.45,2.13-1.83,3.55-3.94,4.15-1.93.55-3.66.07-5.28-1.1-4.54-3.29-9.11-6.53-13.67-9.8-.38-.27-.76-.55-1.14-.81-1.44-1-2.63-.93-3.45.18-.81,1.11-.5,2.32.88,3.33,1.7,1.24,3.41,2.45,5.12,3.68,3.04,2.18,6.08,4.35,9.12,6.53,2.44,1.75,3.03,4.49,1.45,6.7-1.6,2.24-4.52,2.61-6.91.77-4.48-3.44-8.93-6.94-13.39-10.41-.22-.17-.44-.35-.66-.52-1.38-1.04-2.61-1.03-3.46.03-.87,1.08-.62,2.28.75,3.36,2.83,2.23,5.67,4.43,8.51,6.64,1.36,1.06,2.75,2.1,4.08,3.2,2.22,1.83,2.61,4.95.94,7.15-1.69,2.22-4.67,2.66-7.21.96,1.81-3.34,2-6.75-.1-10.04-2.09-3.27-5.22-4.49-9.14-4.21-.19-2.64-1-5.01-3.02-6.84-1.97-1.79-4.31-2.52-7.07-2.39.16-3.33-.82-6.17-3.19-8.41-2.36-2.22-5.21-3.01-8.53-2.58-.14-4.47-1.99-7.98-6.14-9.85-4.16-1.88-8.01-1-11.66,2.1-.01-3.44-1.6-5.82-4.42-7.55,6.87-9.33,13.67-18.56,20.55-27.9Z"/>
      <path class="cls-1" d="M104.03,12.22c5.01,12.39,9.95,24.61,14.92,36.9-6.46,1.56-12.45,1.67-17.9-2.88-6.99-5.84-14.24-11.36-21.27-17.14-4.32-3.55-8.76-4-13.58-1.24-4.55,2.61-9.29,3.22-14.25,1.29-2.73-1.06-3.03-2.79-.89-4.84,3.27-3.14,6.6-6.21,9.79-9.43,2.89-2.93,6.24-4.01,10.3-3.38,7.65,1.2,15.32,2.27,22.98,3.45,2.5.38,4.83.03,7.04-1.16.9-.48,1.79-.98,2.87-1.57Z"/>
      <path class="cls-1" d="M139.65,43.88c-.48.18-.97.34-1.44.55-4.23,1.86-8.46,3.71-12.68,5.59-1.2.53-1.57-.2-1.93-1.1-2.7-6.71-5.42-13.41-8.14-20.11-2.75-6.79-5.51-13.57-8.27-20.36-.69-1.7-.61-1.86,1.08-2.62,3.92-1.75,7.85-3.47,11.75-5.26,1.16-.53,1.74-.32,2.23.9,5.48,13.64,11,27.26,16.51,40.88.12.3.22.61.33.92.19.2.38.41.57.61Z"/>
      <path class="cls-1" d="M25.55,0c.49.3.82.46,1.1.68,3.16,2.48,6.3,4.98,9.47,7.44.84.65.91,1.24.27,2.11-8.03,10.84-16.03,21.69-24.05,32.54-.95,1.28-1.23,1.32-2.47.34-3.01-2.37-5.98-4.78-9.02-7.1-1.09-.83-1.06-1.52-.29-2.55C8.52,22.7,16.45,11.91,24.41,1.13c.31-.42.74-.74,1.14-1.13Z"/>
      <path class="cls-1" d="M36.01,57.59c-.6,1.28-1.01,2.7-1.82,3.82-2.22,3.06-4.58,6.01-6.93,8.97-2.24,2.83-5.86,3.33-8.55,1.25-2.69-2.08-3.14-5.75-.98-8.6,2.4-3.16,4.83-6.29,7.3-9.39,1.65-2.07,4.26-2.76,6.68-1.9,2.4.85,3.99,3.12,4.31,5.84Z"/>
      <path class="cls-1" d="M28.8,77.01c.47-1.09.77-2.3,1.45-3.23,2.37-3.23,4.84-6.4,7.34-9.53,2.01-2.52,5.25-2.83,7.84-.84,2.36,1.81,2.9,5.17,1.03,7.61-2.52,3.3-5.14,6.52-7.79,9.71-1.5,1.81-3.98,2.33-6.11,1.5-2.12-.82-3.48-2.82-3.75-5.21Z"/>
      <path class="cls-1" d="M47.4,89.77c-2.02-.05-3.47-1.08-4.37-2.79-.9-1.7-.77-3.47.42-5.01,1.86-2.4,3.75-4.77,5.72-7.09,1.65-1.94,4.27-2.22,6.32-.8,1.97,1.37,2.69,4.13,1.31,6.22-1.83,2.76-3.81,5.44-5.94,7.96-.76.9-2.15,1.25-3.26,1.86-.07-.11-.13-.23-.2-.34Z"/>
      <path class="cls-1" d="M63.11,82.06c3.88.32,6.28,4.17,4.52,7.47-.9,1.68-1.97,3.29-3.11,4.82-1.67,2.23-4.62,2.51-6.98.8-2.2-1.6-2.76-4.44-1.21-6.69,1.11-1.61,2.25-3.25,3.61-4.63.81-.83,2.09-1.19,3.17-1.76Z"/>
    </g>
  </g>
</svg>