<?xml version="1.0" encoding="UTF-8"?>
<svg id="Layer_2" data-name="Layer 2" xmlns="http://www.w3.org/2000/svg" viewBox="0 0 106.39 106.8">
  <defs>
    <style>
      .cls-1 {
        fill: #aa7d47;
        stroke-width: 0px;
      }
    </style>
  </defs>
  <g id="Layer_1-2" data-name="Layer 1">
    <g>
      <path class="cls-1" d="M103.87,41.78l-7.79-1.56c-.86-2.84-1.99-5.58-3.39-8.19l4.4-6.61c.83-1.24.66-2.89-.39-3.95l-11.8-11.8c-1.05-1.05-2.71-1.22-3.95-.39l-6.61,4.4c-2.61-1.4-5.35-2.53-8.19-3.39l-1.56-7.79c-.29-1.46-1.58-2.52-3.07-2.52h-16.69c-1.49,0-2.78,1.05-3.07,2.52l-1.56,7.79c-2.84.86-5.58,1.99-8.19,3.39l-6.61-4.4c-1.24-.83-2.89-.66-3.95.39l-11.8,11.8c-1.05,1.05-1.22,2.71-.39,3.95l4.4,6.61c-1.4,2.61-2.53,5.35-3.39,8.19l-7.79,1.56c-1.46.29-2.52,1.58-2.52,3.07v16.69c0,1.49,1.05,2.78,2.52,3.07l7.79,1.56c.86,2.84,1.99,5.58,3.39,8.19l-4.4,6.61c-.83,1.24-.66,2.89.39,3.95l11.8,11.8c1.05,1.05,2.71,1.22,3.95.39l6.47-4.31v-19.64c-4.9-5.22-7.91-12.22-7.91-19.95,0-16.13,13.08-29.2,29.2-29.2s29.2,13.08,29.2,29.2c0,7.72-3.01,14.73-7.91,19.95v19.64l6.47,4.31c.53.35,1.13.53,1.73.53.81,0,1.61-.31,2.21-.92l11.8-11.8c1.05-1.05,1.22-2.71.39-3.95l-4.4-6.61c1.4-2.61,2.53-5.35,3.39-8.19l7.79-1.56c1.46-.29,2.52-1.58,2.52-3.07v-16.69c0-1.49-1.05-2.78-2.52-3.07h0Z"/>
      <path class="cls-1" d="M63.11,36.05c-1.57-.91-3.57.06-3.83,1.86l-1.91,13.2h-8.34l-1.91-13.2c-.26-1.8-2.26-2.77-3.83-1.86-6.11,3.54-9.9,10.11-9.9,17.14,0,7.62,4.27,14.45,11.14,17.8l.33.16v32.52c0,1.73,1.4,3.13,3.13,3.13h10.43c1.73,0,3.13-1.4,3.13-3.13v-32.52l.33-.16c6.87-3.35,11.14-10.18,11.14-17.8,0-7.04-3.8-13.61-9.9-17.14h0Z"/>
    </g>
  </g>
</svg>