<?xml version="1.0" encoding="UTF-8"?>
<svg id="Layer_2" data-name="Layer 2" xmlns="http://www.w3.org/2000/svg" viewBox="0 0 95.87 96.65">
  <defs>
    <style>
      .cls-1 {
        fill: #aa7d47;
        stroke-width: 0px;
      }
    </style>
  </defs>
  <g id="Layer_1-2" data-name="Layer 1">
    <g>
      <path class="cls-1" d="M3.23,45.5c-.61-.05-1.07-.05-1.53-.13-1.08-.19-1.74-1.01-1.7-2.06.04-.99.73-1.73,1.78-1.86.43-.05.86-.05,1.29-.05,29.89,0,59.79,0,89.68,0,.43,0,.87,0,1.29.04,1.11.13,1.81.89,1.82,1.94.01,1.05-.67,1.84-1.77,2.01-.42.06-.86.06-1.46.1,0,.51,0,1.01,0,1.51,0,15.52,0,31.04,0,46.56,0,2.57-.52,3.09-3.12,3.09-3.73,0-7.46,0-11.2,0-1.59,0-2.09-.34-2.67-1.79-.53-1.31-1.06-2.62-1.55-3.94-.21-.58-.47-.86-1.16-.86-16.69.02-33.39.02-50.08,0-.63,0-.88.25-1.08.79-.52,1.4-1.11,2.77-1.63,4.16-.41,1.09-1.15,1.63-2.31,1.63-4.09,0-8.17.01-12.26-.01-1.63,0-2.33-.79-2.34-2.57-.01-5.81,0-11.63,0-17.44,0-9.9,0-19.8,0-29.7,0-.46,0-.92,0-1.42Z"/>
      <path class="cls-1" d="M80.78,34.73c-.75-3.84-1.47-7.54-2.19-11.23-.6-3.12-2.72-4.92-5.92-4.97-2.24-.03-4.48-.03-6.72,0-3.25.04-5.36,1.86-5.97,5.06-.64,3.35-1.28,6.7-1.93,10.05-.07.34-.18.67-.28,1.04-2.72.11-5.39.29-7.7-1.48-2.1-1.6-3.3-3.68-3.31-6.33-.04-6.28-.05-12.57,0-18.85.03-4.38,3.42-7.92,7.82-7.96,9.82-.09,19.64-.08,29.45,0,4.37.04,7.74,3.44,7.8,7.84.1,6.32.1,12.65,0,18.97-.07,4.47-3.41,7.7-7.9,7.85-1.01.03-2.03,0-3.16,0Z"/>
      <path class="cls-1" d="M26.47,22.45c-5.89,0-10.62-4.74-10.61-10.62.01-5.86,4.82-10.65,10.66-10.61,5.8.04,10.55,4.8,10.57,10.6.02,5.86-4.75,10.64-10.62,10.63Z"/>
      <path class="cls-1" d="M9.45,37.25c1.53-6.02,9.37-11.35,16.87-11.48,7.37-.13,15.27,5.1,17.19,11.48H9.45Z"/>
      <path class="cls-1" d="M77.16,37.29h-15.7c.3-1.64.59-3.24.9-4.83.52-2.69,1.06-5.38,1.59-8.08.28-1.43.7-1.81,2.13-1.82,2.16-.02,4.32,0,6.47,0,1.14,0,1.83.46,2.05,1.64.82,4.31,1.68,8.61,2.55,13.09Z"/>
    </g>
  </g>
</svg>